{
  "asset": {
    "version": "2.0",
    "generator": "Open Asset Import Library (assimp v5.2.cf7d3637)"
  },
  "extensionsUsed": ["KHR_materials_volume", "FB_ngon_encoding"],
  "accessors": [
    {
      "bufferView": 0,
      "byteOffset": 0,
      "componentType": 5126,
      "count": 71895,
      "type": "VEC3",
      "max": [0.09922397136688233, 0.08555163443088532, 0.09886481612920761],
      "min": [-0.0673840194940567, -0.08422629535198212, -0.11209427565336228]
    },
    {
      "bufferView": 1,
      "byteOffset": 0,
      "componentType": 5126,
      "count": 71895,
      "type": "VEC2",
      "max": [0.9976592063903809, 0.9926171898841858],
      "min": [0.0002451261389069259, 0.000022292137145996095]
    },
    {
      "bufferView": 2,
      "byteOffset": 0,
      "componentType": 5125,
      "count": 71895,
      "type": "SCALAR",
      "max": [71894],
      "min": [0]
    }
  ],
  "buffers": [
    {
      "byteLength": 1725480
    }
  ],
  "bufferViews": [
    {
      "buffer": 0,
      "byteOffset": 0,
      "byteLength": 862740,
      "target": 34962
    },
    {
      "buffer": 0,
      "byteOffset": 862740,
      "byteLength": 575160,
      "target": 34962
    },
    {
      "buffer": 0,
      "byteOffset": 1437900,
      "byteLength": 287580,
      "target": 34963
    }
  ],
  "images": [
    {
      "uri": "data:image/jpeg;base64,"
    },
    {
      "uri": "data:image/jpeg;base64,"
    },
    {
      "uri": "data:image/jpeg;base64,"
    }
  ],
  "materials": [
    {
      "name": "material",
      "pbrMetallicRoughness": {
        "baseColorTexture": {
          "index": 0
        },
        "metallicFactor": 0.0
      },
      "normalTexture": {
        "index": 1
      },
      "occlusionTexture": {
        "index": 2
      }
    },
    {
      "name": "material"
    }
  ],
  "meshes": [
    {
      "name": "meshes[0]",
      "primitives": [
        {
          "mode": 4,
          "material": 0,
          "indices": 2,
          "attributes": {
            "POSITION": 0,
            "TEXCOORD_0": 1
          }
        }
      ]
    }
  ],
  "nodes": [
    {
      "name": "nodes[0]",
      "mesh": 0
    }
  ],
  "samplers": [{}, {}, {}],
  "scenes": [
    {
      "nodes": [0]
    }
  ],
  "textures": [
    {
      "source": 0,
      "sampler": 0
    },
    {
      "source": 1,
      "sampler": 1
    },
    {
      "source": 2,
      "sampler": 2
    }
  ],
  "scene": 0
}
